PathFileType	4	(X/Y/Z)	T1_P2_NoVision_NoMovement_2_0-733.trc
DataRate	CameraRate	NumFrames	NumMarkers	Units	OrigDataRate	OrigDataStartFrame	OrigNumFrames
60	60	4	27	m	60	366	733
Frame#	Time	RHip			RKnee			RAnkle			RBigToe			RSmallToe			RHeel			LHip			LKnee			LAnkle			LBigToe			LSmallToe			LHeel			Neck			Head			Nose			RShoulder			RElbow			RWrist			RThumb			RIndex			RPinky			LShoulder			LElbow			LWrist			LThumb			LIndex			LPinky		
		X1	Y1	Z1	X2	Y2	Z2	X3	Y3	Z3	X4	Y4	Z4	X5	Y5	Z5	X6	Y6	Z6	X7	Y7	Z7	X8	Y8	Z8	X9	Y9	Z9	X10	Y10	Z10	X11	Y11	Z11	X12	Y12	Z12	X13	Y13	Z13	X14	Y14	Z14	X15	Y15	Z15	X16	Y16	Z16	X17	Y17	Z17	X18	Y18	Z18	X19	Y19	Z19	X20	Y20	Z20	X21	Y21	Z21	X22	Y22	Z22	X23	Y23	Z23	X24	Y24	Z24	X25	Y25	Z25	X26	Y26	Z26	X27	Y27	Z27
367	6.116666666666666	455.4427467889264	3675.1614388713606	550.0338130998972	857.3942697256855	3732.8558025573025	577.4176027118002	1249.9385843492867	3794.407929820927	632.3283344257017	1318.3518521424248	3646.480686083397	574.8268643227548	1305.4316130398836	3690.594888118804	524.1480077871724	1275.1053835237499	3769.4551345047444	636.6707170889729	453.0586075920363	3585.9259465249984	749.2163600340785	841.8162477286031	3575.699753109474	744.2982137909615	1214.882087356216	3602.1594131574584	724.7233048916485	1317.1104855849312	3534.5040264432496	682.7235371432128	1264.395375857309	3438.6827569148536	702.4963754809188	1271.9383271104991	3627.911088732667	716.7838830734926	-119.82264078907271	3613.3258353881197	642.6606898091973	-381.0131860601202	3601.2130776544072	635.3809465481555	-236.2834492458993	3494.730939297771	606.8882623159312	-34.694280682220224	3769.864027133616	538.993430434423	203.58622963735195	3675.3564466677826	438.1988777121363	354.0863820042672	3532.7168638408875	520.9163380251949	426.61047627283654	3537.458875476505	615.6886078530068	445.8247026314143	3549.5345526849433	627.0997725767621	463.65253124250654	3531.1989244359306	611.466758499053	-38.29689906478172	3556.5980299027974	806.4347273206981	214.4882438823354	3516.3625621575475	791.40184515664	360.25553336466214	3432.6266959416917	602.6259527539477	417.4201476858982	3466.6033214248478	524.1635122135365	441.04856840644504	3494.6982399205854	538.4476485397953	459.52438936812905	3505.922551689321	598.9067645671212
368	6.133333333333334	455.53858734555024	3674.9773996738836	550.0313151285411	848.5827658509064	3705.271742163649	559.4448841683402	1249.7334502140102	3794.0463878960945	632.0808105460982	1318.237574140477	3646.4468510724323	574.7579119409229	1298.587071038055	3686.659017235396	523.1786954024802	1277.3762621231851	3763.394403944006	633.39001675148	452.88281992903103	3582.4375232663933	752.7156470765024	845.1212745882303	3570.6364063459305	741.8124418138119	1214.9182957432918	3602.0278395963874	724.7966129900697	1318.8202444663325	3526.1217376330187	683.7739236485866	1264.4940359641892	3439.0639556578094	702.888043075399	1265.8847868355087	3623.732962985754	715.4822275000649	-119.8012544025283	3613.6853439135857	642.7867642090996	-382.05040308670414	3617.4317243884784	649.0914910269595	-236.3373766663561	3494.7243048640253	606.9189477700894	-35.41520388834547	3752.831027654826	525.4706515027415	208.58743523117448	3679.041489295995	439.29209758982404	354.04960650816633	3532.631346045262	520.9930562227837	422.6319780470776	3541.9038698053528	618.6698248072887	442.5600546143691	3551.2371056624056	632.9262800614345	466.93619661075536	3544.227716553316	623.7336066997887	-38.27895782434459	3556.733716155136	806.6165175241442	216.3079942016521	3531.705011485244	805.807597029103	359.8818730283265	3429.8800655764153	607.5021966432931	413.97841680732876	3470.2075400749095	526.0137970914122	437.1397740981471	3494.771849981503	543.3684329082955	459.6738097646069	3504.7457389104316	603.9955278607132
369	6.15	455.4542527767828	3674.6927251540765	549.8993263262549	848.3153230238515	3704.7326870023244	559.0746056133933	1237.56624467813	3789.4569196423863	628.6068055276407	1313.0889560991616	3644.878233156327	573.2988092757025	1292.2072251750544	3683.4818064029755	520.8543359821706	1274.9604804874293	3769.3333040720636	636.4138709694488	449.76909443237616	3567.028920274503	739.0076846144474	845.0331649884048	3570.5595506008453	741.7499577640092	1214.6652791349318	3602.1480812594973	724.5034621043578	1317.0691171386106	3534.8297474172814	682.8058445585381	1264.170983392985	3439.130159069017	702.9180782599501	1263.6483580574327	3631.684591061581	718.167835913459	-119.86862086871575	3613.7346445288226	642.8109602578468	-382.0768442481636	3617.3928623866746	649.1037918959663	-236.4987829213894	3494.8940321768864	607.0347653345152	-35.3793360201337	3752.9093162665463	525.479283885443	204.38163697896545	3684.8795054445227	436.9972427628969	349.4504465254402	3528.4819460872272	519.5884790239782	418.5635073745819	3546.4331471626233	621.4406824151096	439.30042289481656	3555.151861491244	635.3196234989101	466.83058681567076	3544.160971744467	623.8881684133352	-38.195868960685026	3556.5635290959767	806.7171452602608	221.78397494350008	3535.536869588317	807.4657694724862	362.48795572021106	3445.7439378384133	614.6207590386001	414.16403800807626	3469.255056364683	530.230218518455	436.97384735369144	3495.0049783464447	543.8197824797048	456.3447660344373	3484.590305970197	598.5958850850475
370	6.166666666666667	455.5588594755938	3674.462687067492	549.8056995448904	837.7526431044294	3685.681284552806	544.2563050777682	1223.821814919798	3764.915466272882	620.8393299873554	1305.5934704135545	3641.1426937887454	572.6726464133308	1291.4500404828875	3683.0138012535267	520.2862170382457	1270.757940056315	3760.592180466353	631.0489876050286	453.12421926047557	3582.3337224209286	752.928689832765	845.0611267693517	3570.500489556208	741.710785754769	1208.0733377514136	3597.7856478972944	723.2842711776761	1309.2977831831759	3514.7531422853253	676.8611528765849	1259.055408237617	3437.281259120801	701.2004447165959	1257.3391253629432	3627.77188863787	717.1918539944832	-124.07653421297788	3606.804674006598	644.9412060407462	-382.00443880129524	3617.1366394053593	649.0486193157361	-236.55409423273673	3494.6610314305135	607.097112987499	-35.370566755748236	3752.9272473378714	525.4629607477408	204.45863607470505	3683.463255333835	441.36904500573297	349.61526650220947	3528.8613593751024	519.7995042156385	417.04355948949376	3543.8967950942524	621.0615931231027	439.44852173511384	3555.5437339545883	635.8329007293343	471.34816172667814	3545.727806329423	625.1138857629558	-38.27507203723453	3556.5757180892156	806.7255792370885	221.6521732645155	3535.7868902472087	807.7237655560135	362.23944375103434	3445.0880118109667	614.2628492496582	408.2864699545877	3466.336996922801	524.3052638847396	437.7491025383233	3481.668061495168	531.3444529536235	460.8601949883285	3486.030362773423	599.5068146483019
